<?xml version="1.0" standalone="no"?><!DOCTYPE svg PUBLIC "-//W3C//DTD SVG 1.1//EN" "http://www.w3.org/Graphics/SVG/1.1/DTD/svg11.dtd"><svg t="1617258597790" class="icon" viewBox="0 0 1024 1024" version="1.1" xmlns="http://www.w3.org/2000/svg" p-id="1732" xmlns:xlink="http://www.w3.org/1999/xlink" width="200" height="200"><defs><style type="text/css"></style></defs><path d="M512 1024a512 512 0 1 1 512-512 512 512 0 0 1-512 512zM512 64a448 448 0 1 0 448 448 448 448 0 0 0-448-448z" p-id="1733"></path><path d="M704 688.64a30.08 30.08 0 0 1-16-4.48L480 563.84V256a32 32 0 0 1 64 0v270.72l178.56 101.76a32.64 32.64 0 0 1 11.52 44.16 32 32 0 0 1-30.08 16zM512 158.72A32 32 0 0 1 480 128V32a32 32 0 0 1 64 0V128a32 32 0 0 1-32 30.72zM506.24 1016.32a32 32 0 0 1-32-32V889.6a32 32 0 0 1 32-32 32 32 0 0 1 32 32v94.72a32 32 0 0 1-32 32zM131.2 540.8H36.48A32 32 0 0 1 4.48 512a32 32 0 0 1 32-32h94.72a32 32 0 0 1 32 32 32 32 0 0 1-32 28.8zM982.4 547.2h-94.72a32 32 0 0 1-32-32 32 32 0 0 1 32-32h94.72a32 32 0 0 1 32 32 32 32 0 0 1-32 32z" p-id="1734"></path></svg>