<?xml version="1.0" standalone="no"?><!DOCTYPE svg PUBLIC "-//W3C//DTD SVG 1.1//EN" "http://www.w3.org/Graphics/SVG/1.1/DTD/svg11.dtd"><svg t="1622517820693" class="icon" viewBox="0 0 1024 1024" version="1.1" xmlns="http://www.w3.org/2000/svg" p-id="2568" xmlns:xlink="http://www.w3.org/1999/xlink" width="32" height="32"><defs><style type="text/css"></style></defs><path d="M617.360725 321.963301l-21.638329-158.049043-497.666182 0-22.578092 158.049043 34.808 0c20.696568-112.891859 27.282902-117.59547 82.78747-117.59547l114.774183 0 0 552.230987c0 68.676238-4.703811 73.380048-88.433042 73.380048l0 30.104189 254.947945 0 0-30.104189c-84.669194 0-88.432043-4.703811-88.432043-73.380048L385.930635 204.367631l114.773184 0c53.623044 0 61.15014 3.763049 81.846708 117.59547L617.360725 321.963101zM932.777473 353.650617 570.74693 353.650617l-16.424864 114.974847 25.322631 0c15.056192-82.12412 19.846744-85.546999 60.224368-85.546999l83.491793 0 0 401.724031c0 49.958928-3.42188 53.380608-64.330584 53.380608l0 21.898753 185.462656 0 0-21.897753c-61.59224 0-64.330584-3.42188-64.330584-53.380608L780.162346 383.078465l83.493791 0c39.008952 0 44.482841 2.737544 59.541031 85.546999l25.321632 0L932.777473 353.650617z" p-id="2569"></path></svg>